<svg width="36" height="39" viewBox="0 0 36 39" fill="none" xmlns="http://www.w3.org/2000/svg">
<g filter="url(#filter0_d_124_3030)">
<path d="M25.7747 22.3561L31.5924 28.4934C32.1511 29.0828 32.1332 30.0268 31.5524 30.5933C30.9808 31.1511 30.078 31.1329 29.5282 30.5526L23.7061 24.4083C21.7272 25.93 19.4956 26.7673 17.0114 26.9203C15.3514 27.0226 13.7438 26.792 12.1886 26.2288C10.6334 25.6655 9.2766 24.8625 8.11833 23.8199C6.96006 22.7772 6.01249 21.5057 5.27561 20.0055C4.53874 18.5053 4.12096 16.9125 4.02229 15.2271C3.92361 13.5418 4.15262 11.9092 4.70933 10.3292C5.26604 8.74932 6.05852 7.37069 7.08678 6.19334C8.11504 5.01599 9.36839 4.05225 10.8468 3.30212C12.3253 2.55198 13.8945 2.1258 15.5543 2.02356C17.2142 1.92132 18.8218 2.15183 20.3771 2.7151C21.9324 3.27837 23.2892 4.08134 24.4474 5.12402C25.6055 6.16669 26.5531 7.43815 27.2901 8.93838C28.027 10.4386 28.4448 12.0314 28.5434 13.7168C28.606 14.7861 28.5356 15.8403 28.3321 16.8793C28.1287 17.9184 27.8096 18.8946 27.3747 19.8079C26.9399 20.7212 26.4066 21.5706 25.7747 22.3561ZM16.84 23.9912C18.1107 23.9129 19.3094 23.5854 20.436 23.0085C21.5626 22.4317 22.519 21.6933 23.305 20.7934C24.091 19.8934 24.6986 18.8412 25.1279 17.6365C25.5572 16.4319 25.7341 15.1845 25.6586 13.8944C25.5831 12.6042 25.262 11.3875 24.6953 10.2442C24.1286 9.10096 23.4026 8.13081 22.5173 7.33378C21.632 6.53674 20.5964 5.92105 19.4106 5.48669C18.2247 5.05232 16.9965 4.87428 15.7258 4.95255C14.4551 5.03081 13.2565 5.35835 12.1298 5.93514C11.0032 6.51194 10.0468 7.25035 9.26078 8.15038C8.47473 9.0504 7.86709 10.1027 7.43783 11.3072C7.00858 12.5117 6.83171 13.7591 6.90721 15.0494C6.98272 16.3396 7.3038 17.5563 7.87045 18.6995C8.4371 19.8427 9.16312 20.8128 10.0485 21.6099C10.9339 22.407 11.9695 23.0227 13.1552 23.457C14.341 23.8913 15.5692 24.0694 16.84 23.9912Z" fill="#ADADAD"/>
</g>
<defs>
<filter id="filter0_d_124_3030" x="-2" y="0" width="40" height="40" filterUnits="userSpaceOnUse" color-interpolation-filters="sRGB">
<feFlood flood-opacity="0" result="BackgroundImageFix"/>
<feColorMatrix in="SourceAlpha" type="matrix" values="0 0 0 0 0 0 0 0 0 0 0 0 0 0 0 0 0 0 127 0" result="hardAlpha"/>
<feOffset dy="4"/>
<feGaussianBlur stdDeviation="2"/>
<feComposite in2="hardAlpha" operator="out"/>
<feColorMatrix type="matrix" values="0 0 0 0 0 0 0 0 0 0 0 0 0 0 0 0 0 0 0.25 0"/>
<feBlend mode="normal" in2="BackgroundImageFix" result="effect1_dropShadow_124_3030"/>
<feBlend mode="normal" in="SourceGraphic" in2="effect1_dropShadow_124_3030" result="shape"/>
</filter>
</defs>
</svg>
