<svg width="631" height="20" viewBox="0 0 631 20" fill="none" xmlns="http://www.w3.org/2000/svg">
<path d="M2.256 9.36L0.688 9.168C0.677333 9.072 0.672 8.93333 0.672 8.752C0.672 7.824 0.997333 7.03467 1.648 6.384C2.29867 5.72267 3.168 5.392 4.256 5.392C5.33333 5.392 6.18667 5.70133 6.816 6.32C7.44533 6.928 7.76 7.68 7.76 8.576C7.76 9.888 7.10933 10.9547 5.808 11.776L3.76 13.088C3.024 13.5573 2.60267 14.0427 2.496 14.544H7.824V16H0.56C0.581333 15.1253 0.778667 14.3573 1.152 13.696C1.536 13.0347 2.16 12.4267 3.024 11.872L4.752 10.752C5.70133 10.144 6.176 9.424 6.176 8.592C6.176 8.08 6.00533 7.648 5.664 7.296C5.32267 6.944 4.84267 6.768 4.224 6.768C3.57333 6.768 3.07733 6.96533 2.736 7.36C2.39467 7.75467 2.224 8.26667 2.224 8.896C2.224 8.992 2.23467 9.14667 2.256 9.36ZM10.0048 15.76C9.79142 15.5467 9.68475 15.2853 9.68475 14.976C9.68475 14.6667 9.79142 14.4053 10.0048 14.192C10.2181 13.968 10.4794 13.856 10.7888 13.856C11.0981 13.856 11.3594 13.968 11.5728 14.192C11.7968 14.4053 11.9088 14.6667 11.9088 14.976C11.9088 15.2853 11.7968 15.5467 11.5728 15.76C11.3594 15.9733 11.0981 16.08 10.7888 16.08C10.4794 16.08 10.2181 15.9733 10.0048 15.76ZM9.98875 10.128C9.77542 9.91467 9.66875 9.65333 9.66875 9.344C9.66875 9.03467 9.77542 8.77333 9.98875 8.56C10.2021 8.336 10.4634 8.224 10.7728 8.224C11.0821 8.224 11.3434 8.336 11.5568 8.56C11.7808 8.77333 11.8928 9.03467 11.8928 9.344C11.8928 9.65333 11.7808 9.91467 11.5568 10.128C11.3434 10.3413 11.0821 10.448 10.7728 10.448C10.4634 10.448 10.2021 10.3413 9.98875 10.128ZM16.7094 11.184L15.9414 9.888L18.9974 7.072H14.0374V5.632H21.0774V7.04L18.1174 9.776C18.96 9.776 19.7014 10.0533 20.3414 10.608C20.992 11.1627 21.3174 11.936 21.3174 12.928C21.3174 13.8453 20.9814 14.6293 20.3094 15.28C19.6374 15.9307 18.72 16.256 17.5574 16.256C16.416 16.256 15.4987 15.9413 14.8054 15.312C14.1227 14.672 13.7547 13.8987 13.7014 12.992L15.2374 12.64C15.2694 13.312 15.4987 13.856 15.9254 14.272C16.3627 14.6773 16.9014 14.88 17.5414 14.88C18.224 14.88 18.7574 14.6987 19.1414 14.336C19.536 13.9627 19.7334 13.504 19.7334 12.96C19.7334 12.3307 19.5254 11.8507 19.1094 11.52C18.6934 11.1893 18.1974 11.024 17.6214 11.024C17.312 11.024 17.008 11.0773 16.7094 11.184ZM22.8651 15.632L23.3771 14.336C23.9211 14.6667 24.5505 14.832 25.2651 14.832C26.4491 14.832 27.3345 14.496 27.9211 13.824C28.5185 13.1413 28.8331 12.2507 28.8651 11.152C28.6625 11.5253 28.3265 11.84 27.8571 12.096C27.3985 12.352 26.8385 12.48 26.1771 12.48C25.2171 12.48 24.3798 12.1707 23.6651 11.552C22.9505 10.9227 22.5931 10.064 22.5931 8.976C22.5931 7.93067 22.9665 7.072 23.7131 6.4C24.4705 5.728 25.3718 5.392 26.4171 5.392C27.5265 5.392 28.4758 5.79733 29.2651 6.608C30.0545 7.41867 30.4491 8.60267 30.4491 10.16C30.4491 12.1013 30.0118 13.6 29.1371 14.656C28.2731 15.712 26.9825 16.24 25.2651 16.24C24.8598 16.24 24.4225 16.1813 23.9531 16.064C23.4838 15.9467 23.1211 15.8027 22.8651 15.632ZM28.6571 8.944C28.6571 8.304 28.4331 7.78133 27.9851 7.376C27.5371 6.97067 27.0145 6.768 26.4171 6.768C25.8091 6.768 25.2811 6.97067 24.8331 7.376C24.3958 7.77067 24.1771 8.29333 24.1771 8.944C24.1771 9.616 24.3958 10.1493 24.8331 10.544C25.2705 10.9387 25.7985 11.136 26.4171 11.136C27.0251 11.136 27.5478 10.9387 27.9851 10.544C28.4331 10.1387 28.6571 9.60533 28.6571 8.944Z" fill="#A6A6A6"/>
<rect opacity="0.5" x="40" y="7.5" width="552" height="5" rx="2.5" fill="white"/>
<rect x="40" y="7.5" width="274.996" height="5" rx="2.5" fill="white"/>
<path d="M600.56 13.664V11.856L605.008 5.632H607.168V12.208H608.944V13.664H607.168V16H605.648V13.664H600.56ZM605.648 12.208V7.136L602 12.208H605.648ZM610.724 15.76C610.51 15.5467 610.404 15.2853 610.404 14.976C610.404 14.6667 610.51 14.4053 610.724 14.192C610.937 13.968 611.198 13.856 611.508 13.856C611.817 13.856 612.078 13.968 612.292 14.192C612.516 14.4053 612.628 14.6667 612.628 14.976C612.628 15.2853 612.516 15.5467 612.292 15.76C612.078 15.9733 611.817 16.08 611.508 16.08C611.198 16.08 610.937 15.9733 610.724 15.76ZM610.708 10.128C610.494 9.91467 610.388 9.65333 610.388 9.344C610.388 9.03467 610.494 8.77333 610.708 8.56C610.921 8.336 611.182 8.224 611.492 8.224C611.801 8.224 612.062 8.336 612.276 8.56C612.5 8.77333 612.612 9.03467 612.612 9.344C612.612 9.65333 612.5 9.91467 612.276 10.128C612.062 10.3413 611.801 10.448 611.492 10.448C611.182 10.448 610.921 10.3413 610.708 10.128ZM616.084 9.36L614.516 9.168C614.505 9.072 614.5 8.93333 614.5 8.752C614.5 7.824 614.825 7.03467 615.476 6.384C616.127 5.72267 616.996 5.392 618.084 5.392C619.161 5.392 620.015 5.70133 620.644 6.32C621.273 6.928 621.588 7.68 621.588 8.576C621.588 9.888 620.937 10.9547 619.636 11.776L617.588 13.088C616.852 13.5573 616.431 14.0427 616.324 14.544H621.652V16H614.388C614.409 15.1253 614.607 14.3573 614.98 13.696C615.364 13.0347 615.988 12.4267 616.852 11.872L618.58 10.752C619.529 10.144 620.004 9.424 620.004 8.592C620.004 8.08 619.833 7.648 619.492 7.296C619.151 6.944 618.671 6.768 618.052 6.768C617.401 6.768 616.905 6.96533 616.564 7.36C616.223 7.75467 616.052 8.26667 616.052 8.896C616.052 8.992 616.063 9.14667 616.084 9.36ZM624.553 9.36L622.985 9.168C622.974 9.072 622.969 8.93333 622.969 8.752C622.969 7.824 623.294 7.03467 623.945 6.384C624.596 5.72267 625.465 5.392 626.553 5.392C627.63 5.392 628.484 5.70133 629.113 6.32C629.742 6.928 630.057 7.68 630.057 8.576C630.057 9.888 629.406 10.9547 628.105 11.776L626.057 13.088C625.321 13.5573 624.9 14.0427 624.793 14.544H630.121V16H622.857C622.878 15.1253 623.076 14.3573 623.449 13.696C623.833 13.0347 624.457 12.4267 625.321 11.872L627.049 10.752C627.998 10.144 628.473 9.424 628.473 8.592C628.473 8.08 628.302 7.648 627.961 7.296C627.62 6.944 627.14 6.768 626.521 6.768C625.87 6.768 625.374 6.96533 625.033 7.36C624.692 7.75467 624.521 8.26667 624.521 8.896C624.521 8.992 624.532 9.14667 624.553 9.36Z" fill="#A6A6A6"/>
</svg>
